<svg width="18" height="16" viewBox="0 0 18 16" fill="none" xmlns="http://www.w3.org/2000/svg">
<path d="M9.81429 14.6143C9.10703 15.2484 8.03583 15.2484 7.32857 14.6143C5.88571 13.3143 4.69286 12.1929 3.75 11.25C2.80714 10.3071 2.05714 9.46071 1.5 8.71071C0.942857 7.96071 0.553571 7.27143 0.332143 6.64286C0.110714 6.01429 0 5.37143 0 4.71429C0 3.37143 0.45 2.25 1.35 1.35C2.25 0.45 3.37143 0 4.71429 0C5.45714 0 6.16429 0.157143 6.83571 0.471429C7.88138 0.96089 9.26147 0.96089 10.3071 0.471429C10.9786 0.157143 11.6857 0 12.4286 0C13.7714 0 14.8929 0.45 15.7929 1.35C16.6929 2.25 17.1429 3.37143 17.1429 4.71429C17.1429 5.37143 17.0321 6.01429 16.8107 6.64286C16.5893 7.27143 16.2 7.96071 15.6429 8.71071C15.0857 9.46071 14.3357 10.3071 13.3929 11.25C12.45 12.1929 11.2571 13.3143 9.81429 14.6143ZM5.18571 10.2536C7.05756 12.1103 10.0853 12.1103 11.9571 10.2536C12.8429 9.375 13.5429 8.61071 14.0571 7.96071C14.5714 7.31071 14.9286 6.73214 15.1286 6.225C15.3286 5.71786 15.4286 5.21429 15.4286 4.71429C15.4286 3.85714 15.1429 3.14286 14.5714 2.57143C14 2 13.2857 1.71429 12.4286 1.71429C11.7571 1.71429 11.1357 1.90357 10.5643 2.28214C10.2444 2.49408 9.98044 2.73848 9.77247 3.01534C9.47875 3.40635 9.06047 3.72857 8.57143 3.72857C8.08238 3.72857 7.66411 3.40635 7.37039 3.01534C7.16241 2.73848 6.89848 2.49408 6.57857 2.28214C6.00714 1.90357 5.38571 1.71429 4.71429 1.71429C3.85714 1.71429 3.14286 2 2.57143 2.57143C2 3.14286 1.71429 3.85714 1.71429 4.71429C1.71429 5.21429 1.81429 5.71786 2.01429 6.225C2.21429 6.73214 2.57143 7.31071 3.08571 7.96071C3.6 8.61071 4.3 9.375 5.18571 10.2536Z" fill="#1C1B1F"/>
</svg>
