<svg width="18" height="18" viewBox="0 0 18 18" fill="none" xmlns="http://www.w3.org/2000/svg">
<mask id="mask0_1501_18282" style="mask-type:alpha" maskUnits="userSpaceOnUse" x="0" y="0" width="18" height="18">
<rect width="18" height="18" fill="#D9D9D9"/>
</mask>
<g mask="url(#mask0_1501_18282)">
<path d="M9 18C7.755 18 6.585 17.7637 5.49 17.2912C4.395 16.8187 3.4425 16.1775 2.6325 15.3675C1.8225 14.5575 1.18125 13.605 0.70875 12.51C0.23625 11.415 0 10.245 0 9C0 7.755 0.23625 6.585 0.70875 5.49C1.18125 4.395 1.8225 3.4425 2.6325 2.6325C3.4425 1.8225 4.395 1.18125 5.49 0.70875C6.585 0.23625 7.755 0 9 0C10.245 0 11.415 0.23625 12.51 0.70875C13.605 1.18125 14.5575 1.8225 15.3675 2.6325C16.1775 3.4425 16.8187 4.395 17.2912 5.49C17.7637 6.585 18 7.755 18 9C18 9.405 17.9775 9.8025 17.9325 10.1925C17.8875 10.5825 17.8125 10.965 17.7075 11.34C17.4975 11.1 17.2537 10.8975 16.9762 10.7325C16.6987 10.5675 16.395 10.455 16.065 10.395C16.11 10.17 16.1437 9.94125 16.1662 9.70875C16.1887 9.47625 16.2 9.24 16.2 9C16.2 6.99 15.5025 5.2875 14.1075 3.8925C12.7125 2.4975 11.01 1.8 9 1.8C6.99 1.8 5.2875 2.4975 3.8925 3.8925C2.4975 5.2875 1.8 6.99 1.8 9C1.8 11.01 2.4975 12.7125 3.8925 14.1075C5.2875 15.5025 6.99 16.2 9 16.2C9.765 16.2 10.4962 16.0875 11.1937 15.8625C11.8912 15.6375 12.5325 15.3225 13.1175 14.9175C13.2975 15.1725 13.5187 15.3975 13.7812 15.5925C14.0438 15.7875 14.325 15.9375 14.625 16.0425C13.86 16.6575 13.0012 17.1375 12.0487 17.4825C11.0962 17.8275 10.08 18 9 18ZM15.525 14.4C15.21 14.4 14.9438 14.2912 14.7263 14.0737C14.5088 13.8562 14.4 13.59 14.4 13.275C14.4 12.96 14.5088 12.6937 14.7263 12.4762C14.9438 12.2587 15.21 12.15 15.525 12.15C15.84 12.15 16.1062 12.2587 16.3237 12.4762C16.5412 12.6937 16.65 12.96 16.65 13.275C16.65 13.59 16.5412 13.8562 16.3237 14.0737C16.1062 14.2912 15.84 14.4 15.525 14.4ZM11.97 13.23L8.1 9.36V4.5H9.9V8.64L13.23 11.97L11.97 13.23Z" fill="#1C1B1F"/>
</g>
</svg>
