<svg width="19" height="19" viewBox="0 0 19 19" fill="none" xmlns="http://www.w3.org/2000/svg">
<path d="M9.5 19C8.1975 19 6.96833 18.7503 5.8125 18.251C4.65667 17.7517 3.64867 17.0718 2.7885 16.2115C1.92817 15.3513 1.24833 14.3433 0.749 13.1875C0.249667 12.0317 0 10.8025 0 9.5C0 8.18717 0.249667 6.95542 0.749 5.80475C1.24833 4.65408 1.92817 3.64867 2.7885 2.7885C3.64867 1.92817 4.65667 1.24833 5.8125 0.749001C6.96833 0.249667 8.1975 0 9.5 0C10.8128 0 12.0446 0.249667 13.1953 0.749001C14.3459 1.24833 15.3513 1.92817 16.2115 2.7885C17.0718 3.64867 17.7517 4.65408 18.251 5.80475C18.7503 6.95542 19 8.18717 19 9.5C19 10.8025 18.7503 12.0317 18.251 13.1875C17.7517 14.3433 17.0718 15.3513 16.2115 16.2115C15.3513 17.0718 14.3459 17.7517 13.1953 18.251C12.0446 18.7503 10.8128 19 9.5 19ZM9.5 17.4788C10.0103 16.8019 10.4398 16.1192 10.7885 15.4307C11.1372 14.7422 11.4212 13.9897 11.6405 13.173H7.3595C7.59167 14.0153 7.87892 14.7808 8.22125 15.4693C8.56342 16.1578 8.98967 16.8276 9.5 17.4788ZM7.5635 17.2038C7.18017 16.6538 6.83592 16.0285 6.53075 15.328C6.22558 14.6273 5.98842 13.909 5.81925 13.173H2.427C2.95517 14.2115 3.6635 15.084 4.552 15.7905C5.4405 16.4968 6.44433 16.9679 7.5635 17.2038ZM11.4365 17.2038C12.5557 16.9679 13.5595 16.4968 14.448 15.7905C15.3365 15.084 16.0448 14.2115 16.573 13.173H13.1807C12.9794 13.9153 12.7262 14.6368 12.421 15.3375C12.116 16.0382 11.7878 16.6602 11.4365 17.2038ZM1.798 11.673H5.5155C5.45267 11.3013 5.40708 10.9369 5.37875 10.5798C5.35058 10.2227 5.3365 9.86283 5.3365 9.5C5.3365 9.13717 5.35058 8.77725 5.37875 8.42025C5.40708 8.06308 5.45267 7.69867 5.5155 7.327H1.798C1.70183 7.66667 1.62817 8.01983 1.577 8.3865C1.52567 8.75317 1.5 9.12433 1.5 9.5C1.5 9.87567 1.52567 10.2468 1.577 10.6135C1.62817 10.9802 1.70183 11.3333 1.798 11.673ZM7.01525 11.673H11.9848C12.0474 11.3013 12.0929 10.9402 12.1212 10.5895C12.1494 10.2388 12.1635 9.87567 12.1635 9.5C12.1635 9.12433 12.1494 8.76117 12.1212 8.4105C12.0929 8.05983 12.0474 7.69867 11.9848 7.327H7.01525C6.95258 7.69867 6.90708 8.05983 6.87875 8.4105C6.85058 8.76117 6.8365 9.12433 6.8365 9.5C6.8365 9.87567 6.85058 10.2388 6.87875 10.5895C6.90708 10.9402 6.95258 11.3013 7.01525 11.673ZM13.4845 11.673H17.202C17.2982 11.3333 17.3718 10.9802 17.423 10.6135C17.4743 10.2468 17.5 9.87567 17.5 9.5C17.5 9.12433 17.4743 8.75317 17.423 8.3865C17.3718 8.01983 17.2982 7.66667 17.202 7.327H13.4845C13.5473 7.69867 13.5929 8.06308 13.6212 8.42025C13.6494 8.77725 13.6635 9.13717 13.6635 9.5C13.6635 9.86283 13.6494 10.2227 13.6212 10.5798C13.5929 10.9369 13.5473 11.3013 13.4845 11.673ZM13.1807 5.827H16.573C16.0385 4.77567 15.335 3.90317 14.4625 3.2095C13.59 2.516 12.5813 2.04167 11.4365 1.7865C11.8198 2.3685 12.1608 3.00508 12.4595 3.69625C12.7583 4.38725 12.9987 5.0975 13.1807 5.827ZM7.3595 5.827H11.6405C11.4083 4.991 11.1163 4.22075 10.7645 3.51625C10.4125 2.81175 9.991 2.14675 9.5 1.52125C9.009 2.14675 8.5875 2.81175 8.2355 3.51625C7.88367 4.22075 7.59167 4.991 7.3595 5.827ZM2.427 5.827H5.81925C6.00125 5.0975 6.24167 4.38725 6.5405 3.69625C6.83917 3.00508 7.18017 2.3685 7.5635 1.7865C6.41217 2.04167 5.40192 2.51767 4.53275 3.2145C3.66342 3.91117 2.9615 4.782 2.427 5.827Z" fill="black"/>
</svg>
