<svg width="24" height="24" viewBox="0 0 24 24" fill="none" xmlns="http://www.w3.org/2000/svg">
<path d="M12 24C10.34 24 8.78 23.685 7.32 23.055C5.86 22.425 4.59 21.57 3.51 20.49C2.43 19.41 1.575 18.14 0.945 16.68C0.315 15.22 0 13.66 0 12C0 10.34 0.315 8.78 0.945 7.32C1.575 5.86 2.43 4.59 3.51 3.51C4.59 2.43 5.86 1.575 7.32 0.945C8.78 0.315 10.34 0 12 0C13.66 0 15.22 0.315 16.68 0.945C18.14 1.575 19.41 2.43 20.49 3.51C21.57 4.59 22.425 5.86 23.055 7.32C23.685 8.78 24 10.34 24 12C24 13.66 23.685 15.22 23.055 16.68C22.425 18.14 21.57 19.41 20.49 20.49C19.41 21.57 18.14 22.425 16.68 23.055C15.22 23.685 13.66 24 12 24ZM10.8 21.54V19.2C10.14 19.2 9.575 18.965 9.105 18.495C8.635 18.025 8.4 17.46 8.4 16.8V15.6L2.64 9.84C2.58 10.2 2.525 10.56 2.475 10.92C2.425 11.28 2.4 11.64 2.4 12C2.4 14.42 3.195 16.54 4.785 18.36C6.375 20.18 8.38 21.24 10.8 21.54ZM19.08 18.48C19.48 18.04 19.84 17.565 20.16 17.055C20.48 16.545 20.745 16.015 20.955 15.465C21.165 14.915 21.325 14.35 21.435 13.77C21.545 13.19 21.6 12.6 21.6 12C21.6 10.04 21.055 8.25 19.965 6.63C18.875 5.01 17.42 3.84 15.6 3.12V3.6C15.6 4.26 15.365 4.825 14.895 5.295C14.425 5.765 13.86 6 13.2 6H10.8V8.4C10.8 8.74 10.685 9.025 10.455 9.255C10.225 9.485 9.94 9.6 9.6 9.6H7.2V12H14.4C14.74 12 15.025 12.115 15.255 12.345C15.485 12.575 15.6 12.86 15.6 13.2V16.8H16.8C17.32 16.8 17.79 16.955 18.21 17.265C18.63 17.575 18.92 17.98 19.08 18.48Z" fill="currentColor"/>
</svg>
