<svg width="25" height="25" viewBox="0 0 25 25" fill="none" xmlns="http://www.w3.org/2000/svg">
<g filter="url(#filter0_d_385_6358)">
<path d="M5.80775 17C5.30258 17 4.875 16.825 4.525 16.475C4.175 16.125 4 15.6974 4 15.1923V1.80775C4 1.30258 4.175 0.875 4.525 0.525C4.875 0.175 5.30258 0 5.80775 0H12.5095V1.5H5.80775C5.73075 1.5 5.66025 1.53208 5.59625 1.59625C5.53208 1.66025 5.5 1.73075 5.5 1.80775V15.1923C5.5 15.2692 5.53208 15.3398 5.59625 15.4038C5.66025 15.4679 5.73075 15.5 5.80775 15.5H12.5095V17H5.80775ZM16.7308 12.7692L15.6923 11.6845L18.127 9.25H9.59625V7.75H18.127L15.6923 5.3155L16.7308 4.23075L21 8.5L16.7308 12.7692Z" fill="black"/>
</g>
<defs>
<filter id="filter0_d_385_6358" x="0" y="0" width="25" height="25" filterUnits="userSpaceOnUse" color-interpolation-filters="sRGB">
<feFlood flood-opacity="0" result="BackgroundImageFix"/>
<feColorMatrix in="SourceAlpha" type="matrix" values="0 0 0 0 0 0 0 0 0 0 0 0 0 0 0 0 0 0 127 0" result="hardAlpha"/>
<feOffset dy="4"/>
<feGaussianBlur stdDeviation="2"/>
<feComposite in2="hardAlpha" operator="out"/>
<feColorMatrix type="matrix" values="0 0 0 0 0 0 0 0 0 0 0 0 0 0 0 0 0 0 0.25 0"/>
<feBlend mode="normal" in2="BackgroundImageFix" result="effect1_dropShadow_385_6358"/>
<feBlend mode="normal" in="SourceGraphic" in2="effect1_dropShadow_385_6358" result="shape"/>
</filter>
</defs>
</svg>
