<svg width="47" height="46" viewBox="0 0 47 46" fill="none" xmlns="http://www.w3.org/2000/svg">
<g clip-path="url(#clip0_311_6759)">
<path d="M35.4835 0L11.6193 7.87598C2.75035 10.8055 -2.06922 20.3836 0.854809 29.269L1.34769 30.7675L35.4835 0Z" fill="currentColor"/>
<path d="M35.4839 0L45.5741 23.0514C49.3224 31.62 45.4278 41.611 36.8742 45.3663L35.4316 45.999L35.4839 0Z" fill="currentColor"/>
<path d="M25.1205 17.7072V17.7053L14.6418 23.7507C10.7473 25.998 9.40918 30.9816 11.6513 34.8834L12.0293 35.5409L25.1205 17.7072Z" fill="currentColor"/>
<path d="M29.5604 19.4997H29.5633L31.5861 31.4421C32.3382 35.8805 29.3563 40.0897 24.9251 40.8432L24.1777 40.9698L29.5604 19.4997Z" fill="currentColor"/>
</g>
<defs>
<clipPath id="clip0_311_6759">
<rect width="47" height="46" fill="white"/>
</clipPath>
</defs>
</svg>
