<?xml version="1.0" encoding="UTF-8" standalone="no"?>
<!DOCTYPE svg PUBLIC "-//W3C//DTD SVG 1.1//EN" "http://www.w3.org/Graphics/SVG/1.1/DTD/svg11.dtd">
<svg width="100%" height="100%" viewBox="0 0 175 408" version="1.1" xmlns="http://www.w3.org/2000/svg" xmlns:xlink="http://www.w3.org/1999/xlink" xml:space="preserve" xmlns:serif="http://www.serif.com/" style="fill-rule:evenodd;clip-rule:evenodd;stroke-linejoin:round;stroke-miterlimit:2;">
    <g transform="matrix(-1,0,0,1,87.526599,203.698291)">
        <g transform="matrix(1,0,0,1,-87.5,-204.166667)">
            <g transform="matrix(4.166667,0,0,4.166667,0,0)">
                <path d="M0,98C0,84.4 14.667,79.667 22,79L22,58L0,58L0,98Z" style="fill:rgb(101,228,163);fill-rule:nonzero;"/>
            </g>
            <g transform="matrix(4.166667,0,0,4.166667,0,0)">
                <path d="M0,0C0,13.6 14.667,18.333 22,19L22,40L0,40L0,0Z" style="fill:rgb(101,228,163);fill-rule:nonzero;"/>
            </g>
            <g transform="matrix(4.166667,0,0,4.166667,0,0)">
                <path d="M42,49C42,65.569 32.598,79 21,79C9.402,79 0,65.569 0,49C0,32.431 9.402,19 21,19C32.598,19 42,32.431 42,49Z" style="fill:rgb(101,228,163);fill-rule:nonzero;"/>
            </g>
            <g transform="matrix(4.166667,0,0,4.166667,0,0)">
                <rect x="0" y="20" width="22" height="53" style="fill:rgb(101,228,163);fill-rule:nonzero;"/>
            </g>
        </g>
    </g>
    <g transform="matrix(-1,0,0,1,105.526599,203.698291)">
        <g transform="matrix(1,0,0,1,-39.583333,-66.666667)">
            <g transform="matrix(4.166667,0,0,4.166667,0,0)">
                <path d="M15.828,31.656L0,15.828L15.828,0L18.637,2.809L5.619,15.828L18.637,28.846L15.828,31.656Z" style="fill:rgb(28,27,31);fill-rule:nonzero;"/>
            </g>
        </g>
    </g>
</svg>
