<svg width="32" height="32" viewBox="0 0 32 32" fill="none" xmlns="http://www.w3.org/2000/svg">
<path d="M5.87167 24.6538C7.28833 23.6026 8.83167 22.7725 10.5017 22.1633C12.1714 21.5544 13.9486 21.25 15.8333 21.25C17.7181 21.25 19.4953 21.5544 21.165 22.1633C22.835 22.7725 24.3783 23.6026 25.795 24.6538C26.8311 23.5149 27.6521 22.1965 28.2579 20.6987C28.8637 19.201 29.1667 17.5792 29.1667 15.8333C29.1667 12.1389 27.8681 8.99306 25.2708 6.39583C22.6736 3.79861 19.5278 2.5 15.8333 2.5C12.1389 2.5 8.99306 3.79861 6.39583 6.39583C3.79861 8.99306 2.5 12.1389 2.5 15.8333C2.5 17.5792 2.80292 19.201 3.40875 20.6987C4.01458 22.1965 4.83556 23.5149 5.87167 24.6538ZM15.8333 17.0833C14.3119 17.0833 13.0289 16.5608 11.9842 15.5158C10.9392 14.4711 10.4167 13.1881 10.4167 11.6667C10.4167 10.1453 10.9392 8.86222 11.9842 7.8175C13.0289 6.7725 14.3119 6.25 15.8333 6.25C17.3547 6.25 18.6378 6.7725 19.6825 7.8175C20.7275 8.86222 21.25 10.1453 21.25 11.6667C21.25 13.1881 20.7275 14.4711 19.6825 15.5158C18.6378 16.5608 17.3547 17.0833 15.8333 17.0833ZM15.8333 31.6667C13.6347 31.6667 11.5722 31.2532 9.64583 30.4263C7.71944 29.5993 6.04375 28.4732 4.61875 27.0479C3.19347 25.6229 2.06736 23.9472 1.24042 22.0208C0.413472 20.0944 0 18.0319 0 15.8333C0 13.6347 0.413472 11.5722 1.24042 9.64583C2.06736 7.71944 3.19347 6.04375 4.61875 4.61875C6.04375 3.19347 7.71944 2.06736 9.64583 1.24042C11.5722 0.413473 13.6347 0 15.8333 0C18.0319 0 20.0944 0.413473 22.0208 1.24042C23.9472 2.06736 25.6229 3.19347 27.0479 4.61875C28.4732 6.04375 29.5993 7.71944 30.4263 9.64583C31.2532 11.5722 31.6667 13.6347 31.6667 15.8333C31.6667 18.0319 31.2532 20.0944 30.4263 22.0208C29.5993 23.9472 28.4732 25.6229 27.0479 27.0479C25.6229 28.4732 23.9472 29.5993 22.0208 30.4263C20.0944 31.2532 18.0319 31.6667 15.8333 31.6667Z" fill="#65E4A3"/>
</svg>
